<svg xmlns="http://www.w3.org/2000/svg" width="297" height="209" viewBox="0 0 297 209" fill="none"><g clip-path="url(#clip0_618_746)"><path d="M18.2098 52.6708C-3.5231 111.656 28.5077 133.395 53.0866 149.927C77.6655 166.458 106.519 216.364 153.133 208.079C199.747 199.794 194.017 186.805 222.459 166.123C263.851 136.026 308.461 112.145 294.331 55.1668C280.763 0.452159 216.949 11.3567 178.236 18.1355C139.522 24.9144 54.3639 -45.4565 18.2098 52.6708Z" fill="#D9EAFC"></path><path d="M159.385 136.328C159.385 136.328 186.09 115.882 187.788 114.296C189.485 112.71 192.371 105.687 195.2 102.798C195.483 101.326 196.444 87.9585 202.725 83.3143C205.894 81.1623 208.949 81.1623 209.911 82.0686C210.873 82.9749 209.911 89.2049 209.288 93.7364C208.666 98.2679 208.383 102.233 208.383 103.648C208.383 105.064 204.309 111.974 202.272 116.505C200.235 121.036 162.892 135.196 159.384 136.329L159.385 136.328Z" fill="#EAB07B"></path><path d="M199.969 105.221C197.383 107.603 193.761 111.85 193.761 111.85L190.761 114.335L200.868 117.981C201.599 117.42 202.085 116.921 202.272 116.504C204.309 111.973 208.383 105.063 208.383 103.647C208.383 102.831 208.477 101.168 208.676 99.0386C206.862 100.191 202.048 103.307 199.969 105.22V105.221Z" fill="#CA996C"></path><path d="M190.084 110.811C189.199 112.391 188.413 113.712 187.788 114.295C186.09 115.881 159.385 136.328 159.385 136.328C162.893 135.195 200.235 121.036 202.273 116.504C202.706 115.541 203.231 114.471 203.789 113.368C199.061 112.286 194.162 111.434 190.084 110.81V110.811Z" fill="#CA996C"></path><path d="M197.38 103.012C198.111 102.982 198.844 102.914 199.557 102.741C198.587 102.739 197.263 102.705 196.294 102.673C195.93 102.659 195.563 102.649 195.201 102.631C194.929 102.652 195.027 102.963 195.236 103.013C195.572 104.138 196.682 104.917 197.803 105.12C196.955 104.521 196.067 103.952 195.428 103.117C196.142 103.48 196.939 103.726 197.746 103.704C197.091 103.563 196.469 103.321 195.88 103.006C196.38 103.027 196.881 103.03 197.38 103.011V103.012Z" fill="#CA996C"></path><path d="M199.33 89.9411C199.33 89.9411 202.838 84.73 205.045 83.7677C207.251 82.8047 208.213 84.1078 207.591 85.4102C206.969 86.7127 205.215 86.5999 203.178 89.0354C201.14 91.4709 199.953 92.6606 199.047 92.6606C198.142 92.6606 198.707 91.0747 199.33 89.9417V89.9411Z" fill="#E19D5F"></path><path d="M159.385 136.328L196.614 111.986C196.614 111.986 203.8 104.723 208.609 102.005C210.193 99.5129 212.004 96.7373 213.701 95.0948C213.701 95.0948 216.926 78.9528 226.715 76.6307C229.487 76.2339 232.467 78.6069 233.127 81.9802C233.108 83.5976 231.297 90.9607 229.996 97.1908C228.695 103.421 227.958 103.591 226.262 106.026C224.564 108.462 216.247 118.883 213.814 121.772C211.381 124.661 167.701 136.102 159.384 136.328H159.385Z" fill="#EAB07B"></path><path d="M196.684 111.917C196.639 111.962 196.614 111.987 196.614 111.987L159.385 136.329C167.702 136.102 211.381 124.661 213.814 121.773C214.533 120.921 215.762 119.412 217.184 117.647C212.123 115.167 204.002 113.258 196.684 111.917V111.917Z" fill="#CA996C"></path><path d="M229.996 97.191C231.297 90.961 233.108 83.5979 233.127 81.9805C232.888 80.7579 232.343 79.6674 231.614 78.792C230.14 80.8552 226.823 85.6829 225.009 89.7886C222.629 95.1749 222.526 100.25 222.526 100.25C222.526 100.25 209.799 113.301 207.109 115.89L213.76 121.832C213.78 121.812 213.798 121.792 213.815 121.773C216.248 118.884 224.565 108.463 226.263 106.027C227.96 103.592 228.696 103.422 229.997 97.1917L229.996 97.191Z" fill="#CA996C"></path><path d="M218.224 97.9877C216.881 97.3636 215.634 96.5326 214.502 95.5806C215.962 96.0128 217.516 96.0953 219.02 95.8885C217.677 95.8724 216.319 95.7487 215.022 95.3867C214.705 95.2972 214.381 95.1948 214.076 95.0717C213.908 95.0318 213.735 94.8353 213.578 94.9732C213.298 95.2276 214.544 95.9961 214.73 96.2003C215.929 97.0995 217.275 97.8492 218.737 98.2106C218.624 98.161 218.334 98.0335 218.224 97.9877Z" fill="#CA996C"></path><path d="M210.918 103.063C210.34 102.808 209.781 102.516 209.236 102.198C209.023 102.105 208.424 101.521 208.445 102.063C208.999 103.394 210.143 104.461 211.494 104.951C210.476 104.357 209.589 103.515 209.021 102.475C210.329 103.24 211.793 103.776 213.305 103.931C212.488 103.691 211.691 103.414 210.918 103.063Z" fill="#CA996C"></path><path d="M217.768 87.6609C217.788 87.4825 217.842 87.3098 217.92 87.1482C218.335 86.2786 220.207 82.578 223.037 80.1426C226.262 77.367 228.073 78.4433 228.299 78.9528C228.526 79.4624 227.564 80.312 225.527 81.445C223.489 82.578 222.228 83.941 220.887 85.9758C219.133 88.638 217.608 89.1089 217.768 87.6602V87.6609Z" fill="#E19D5F"></path><path d="M159.385 136.328C159.385 136.328 193.484 121.432 210.948 118.43C214.268 115.259 221.34 105.574 225.866 101.496C226.318 100.306 225.866 83.1442 239.445 76.9141C244.424 75.385 246.235 77.537 246.235 79.633C246.235 81.7291 244.481 90.9608 244.311 94.586C244.141 98.2111 243.971 104.498 243.971 106.027C243.971 107.556 235.201 121.093 231.75 126.417C228.298 131.741 221.226 139.105 217.888 140.634C214.55 142.163 159.384 136.329 159.384 136.329L159.385 136.328Z" fill="#EAB07B"></path><path d="M231.28 104.768C229.468 104.237 227.694 103.343 226.418 101.922C227.859 102.482 229.409 102.808 230.959 102.741C229.652 102.614 228.367 102.309 227.138 101.852C226.736 101.7 226.327 101.531 225.944 101.343C225.892 101.316 225.828 101.316 225.774 101.349C225.45 101.622 226.549 102.521 226.755 102.748C228.129 103.956 229.894 104.655 231.694 104.893L231.28 104.768V104.768Z" fill="#CA996C"></path><path d="M244.085 82.0116C243.746 82.8046 241.482 93.5661 241.822 94.2457C242.108 94.8176 243.771 95.0289 244.289 95.0811C244.297 94.911 244.304 94.7455 244.312 94.5858C244.462 91.3735 245.857 83.7579 246.172 80.6074C245.506 80.887 244.326 81.4493 244.085 82.0116Z" fill="#F4D3C9"></path><path d="M241.808 93.5565C241.778 93.9179 241.78 94.1607 241.822 94.2458C242.108 94.8178 243.771 95.029 244.289 95.0812C244.297 94.9112 244.304 94.7456 244.312 94.5859C244.332 94.1627 244.373 93.6628 244.431 93.1069C243.575 93.1572 242.534 93.3788 241.808 93.5565Z" fill="#DA926A"></path><path d="M243.827 94.9791C243.208 94.7936 242.375 94.7047 241.988 94.1559C242.002 93.2038 242.25 92.2563 242.401 91.3133C243 88.2421 243.528 85.0852 244.086 82.0107C242.977 84.968 242.383 88.1139 241.856 91.2212C241.737 92.219 241.508 93.2348 241.627 94.2454C242.105 95.0886 243.442 95.0145 244.289 95.0796C244.134 95.0467 243.98 95.0152 243.827 94.9778V94.9791Z" fill="#CA996C"></path><path d="M231.638 86.2031C231.638 86.2031 235.146 81.0487 237.352 79.4629C239.559 77.877 241.935 77.3108 243.01 78.1604C244.085 79.01 241.991 79.973 239.898 81.2755C237.805 82.5779 237.086 82.0548 235.598 84.2204C233.731 86.9393 230.392 88.8646 231.638 86.2031Z" fill="#E19D5F"></path><path d="M222.189 122.112C222.189 122.112 220.605 119.394 217.21 117.638C216.55 117.296 215.061 116.644 213.22 115.981C212.356 116.979 211.583 117.824 210.948 118.431C195.776 121.039 168.049 132.623 161.033 135.619L162.439 136.646C174.061 137.842 215.027 141.944 217.889 140.633C219.625 139.838 222.37 137.465 225.091 134.622C224.534 129.493 223.634 124.412 222.189 122.112V122.112Z" fill="#CA996C"></path><path d="M215.904 122.57L225.218 134.49C227.687 131.897 230.122 128.93 231.751 126.417C235.203 121.093 243.973 107.556 243.973 106.027C243.973 104.83 244.077 100.716 244.203 97.2476C241.795 99.618 237.806 103.84 235.926 107.501C235.926 107.501 222.888 116.668 215.904 122.571V122.57Z" fill="#CA996C"></path><path d="M258.966 91.2443C249.121 93.0569 237.862 109.992 237.862 109.992C229.997 114.24 215.512 128.286 215.512 128.286C207.251 128.286 159.385 136.329 159.385 136.329C159.385 136.329 138.451 132.704 136.074 131.345C133.698 129.986 94.4311 111.182 91.3759 109.765C88.3208 108.349 83.5682 110.785 83.5682 110.785C80.3431 110.615 31.2317 117.808 31.2317 117.808L19.6353 119.501C28.1154 133.087 41.4383 142.092 53.0868 149.927C59.5111 154.248 66.2276 160.849 73.4761 168.095L80.3431 166.574C82.1538 169.009 85.1524 167.367 85.1524 167.367C85.1524 167.367 122.382 175.239 125.211 176.429C128.04 177.619 131.831 180.45 138.054 180.677C144.278 180.904 153.557 177.052 157.574 174.843C161.592 172.634 223.377 152.641 226.771 148.846C233.391 142.219 250.648 123.472 253.251 119.62C255.854 115.769 268.245 97.7011 268.019 94.8688C267.792 92.0366 263.832 90.6208 258.966 91.2437V91.2443Z" fill="#EAB07B"></path><path d="M159.385 136.329C159.385 136.329 138.451 132.704 136.074 131.344C134.998 130.729 126.357 126.536 116.939 122L121.59 152.868C121.59 152.868 126.399 152.131 129.454 151.678C132.509 151.225 139.186 149.072 142.468 148.619C145.749 148.167 155.538 145.448 157.97 144.712C160.403 143.975 169.513 143.239 178.679 143.069C187.845 142.899 213.08 141.2 218.964 139.104C224.652 137.079 225.793 129.708 222.184 122.109C218.344 125.54 215.513 128.286 215.513 128.286C207.252 128.286 159.385 136.329 159.385 136.329Z" fill="#CA996C"></path><path d="M159.4 136.32C160.678 138.597 161.124 141.718 160.808 144.296C160.736 144.679 160.702 145.114 160.57 145.463C160.515 144.887 160.582 144.283 160.561 143.698C160.619 141.088 160.421 138.656 159.401 136.32H159.4Z" fill="#E09422"></path><path d="M251.61 96.965C251.61 96.965 249.234 99.0043 249.63 101.043C250.026 103.082 252.855 101.949 254.496 100.59C256.137 99.231 258.569 97.1917 260.21 96.6822C261.851 96.1727 263.549 95.2097 263.322 93.7939C263.096 92.3781 256.985 91.868 251.61 96.9656L251.61 96.965Z" fill="#E19D5F"></path><path d="M243.426 111.194C242.227 110.426 240.815 110.029 239.409 109.869C239.073 109.878 237.842 109.649 237.695 109.94C237.637 110.187 237.967 110.182 238.119 110.268C238.48 110.412 238.834 110.595 239.173 110.785C240.303 111.434 241.297 112.308 242.162 113.277C241.302 111.969 240.111 110.872 238.712 110.163C240.449 110.229 242.193 110.613 243.746 111.408L243.426 111.194Z" fill="#CA996C"></path><path d="M254.222 117.305C253.015 118.583 252.98 118.549 252.601 118.997C252.222 119.446 251.567 119.411 251.187 118.962C251.187 118.962 251.359 119.963 251.497 120.308C251.635 120.654 250.635 120.239 250.635 120.239C250.635 120.239 250.98 120.999 250.945 121.24C250.91 121.482 249.134 121.033 248.703 120.723C248.703 120.723 248.6 120.964 248.979 121.62C249.359 122.276 249.048 123.657 248.427 124.383C247.911 124.985 244.797 128.618 242.989 131.572C247.854 126.202 252.068 121.371 253.251 119.619C253.823 118.773 254.866 117.243 256.144 115.339C255.692 115.787 254.964 116.519 254.222 117.304V117.305Z" fill="#EC9E72"></path><path d="M248.272 120.413C249.28 120.925 250.302 121.559 251.241 122.187C250.115 122.01 248.978 121.303 248.272 120.413Z" fill="#CA996C"></path><path d="M250.932 118.601C251.604 119.183 252.099 120.018 252.305 120.883C251.677 120.255 251.203 119.445 250.932 118.601Z" fill="#CA996C"></path><path d="M250.422 120.017C251.067 120.305 251.561 120.788 251.872 121.423C251.227 121.135 250.735 120.65 250.422 120.017Z" fill="#CA996C"></path><path d="M227.492 145.685C226.871 145.375 226.526 144.408 225.699 143.717C225.699 143.717 225.975 146.203 225.768 147.135C225.56 148.067 224.526 147.757 224.112 147.308C224.112 147.308 224.25 148.206 224.388 148.896C224.526 149.587 220.112 147.377 220.112 147.377C220.112 147.377 220.594 148.482 221.319 149.38C222.043 150.278 218.87 151.141 217.801 152.004C217.346 152.371 216.298 153.251 215.245 154.14C221.497 151.725 225.93 149.788 226.772 148.847C228.453 147.163 230.822 144.697 233.462 141.893C232.644 142.33 231.534 142.971 230.597 143.684C228.872 144.996 228.114 145.997 227.493 145.687L227.492 145.685Z" fill="#EC9E72"></path><path d="M219.529 146.977C221.252 147.921 223.031 149.084 224.673 150.161C222.811 149.518 220.968 148.311 219.529 146.977Z" fill="#CA996C"></path><path d="M225.527 143.069C226.319 144.876 226.841 146.862 226.771 148.846C226.371 146.97 225.844 144.956 225.527 143.069Z" fill="#CA996C"></path><path d="M223.773 146.75C224.559 147.592 225.137 148.617 225.763 149.576C224.784 148.953 224.138 147.828 223.773 146.75Z" fill="#CA996C"></path><path d="M264.115 99.5698C262.644 101.326 259.363 106.253 259.249 107.103C259.161 107.768 260.043 108.537 260.431 108.84C263.292 104.408 266.147 99.7501 267.384 96.9862C266.371 96.8644 265.393 98.0464 264.115 99.5704V99.5698Z" fill="#F4D3C9"></path><path d="M259.633 106.207C259.411 106.622 259.27 106.939 259.248 107.104C259.16 107.769 260.042 108.538 260.43 108.841C260.882 108.14 261.335 107.433 261.78 106.729C261.154 106.414 260.28 106.271 259.633 106.207Z" fill="#DA926A"></path><path d="M266.893 96.9798C264.46 97.7199 261.073 103.206 259.785 105.468C258.849 107.049 258.793 107.777 260.43 108.84C259.058 107.455 259.179 107.258 260.18 105.699C261.484 103.685 262.827 101.677 264.273 99.7599C265.15 98.7943 265.967 97.1067 267.383 96.9856C267.225 96.9508 267.057 96.9515 266.893 96.9798Z" fill="#CA996C"></path><path d="M162.842 172.34C162.187 172.642 159.401 173.6 159.583 173.082C159.764 172.564 159.73 172.038 159.73 172.038C159.341 172.918 158.445 174.092 158.1 174.368C157.91 174.52 157.765 174.679 157.672 174.793C158.689 174.276 162.201 172.991 167.142 171.249C166.037 171.332 163.438 172.065 162.842 172.34Z" fill="#EC9E72"></path><path d="M157.564 174.829C158.529 174.021 159.05 172.901 159.765 171.892C159.866 172.719 159.09 173.549 158.51 174.13C158.351 174.28 158.144 174.457 157.97 174.589C157.888 174.632 157.59 174.918 157.564 174.83V174.829Z" fill="#CA996C"></path><path d="M135.845 167.498C135.845 167.498 137.164 167.731 138.612 167.99C140.061 168.249 141.38 168.611 142.596 168.87C143.812 169.129 146.217 169.103 146.735 169.025C146.735 169.025 144.95 169.88 142.829 169.724C140.708 169.569 135.845 167.498 135.845 167.498Z" fill="#EC9E72"></path><path d="M135.458 167.351C137.391 167.95 139.875 168.916 141.841 169.455C143.548 169.736 145.275 169.416 146.93 168.937C146.949 168.929 146.964 168.96 146.945 168.969C145.153 169.88 142.96 170.274 141.041 169.53C139.439 168.882 136.912 168.035 135.458 167.351V167.351Z" fill="#CA996C"></path><path d="M90.8669 148.053C90.8669 148.053 89.8483 150.093 89.5092 153.604C89.1694 157.116 91.0367 158.588 92.6776 158.305C94.3184 158.021 92.2252 156.379 92.2252 153.037C92.2252 149.695 92.112 146.58 90.8675 148.053L90.8669 148.053Z" fill="#E19D5F"></path><path d="M81.2479 165.498C79.5504 163.912 78.9848 158.588 78.9848 158.588C77.1741 162.213 76.0996 164.422 72.3649 164.025C71.5625 163.94 70.5632 163.962 69.4102 164.055C70.7473 165.371 72.1017 166.721 73.4755 168.094L80.3425 166.573C81.9924 168.792 84.6827 167.641 85.1518 167.366C84.3365 165.924 83.2529 163.775 83.2529 163.775C83.278 165.791 82.9447 167.083 81.2472 165.498L81.2479 165.498Z" fill="#EC9E72"></path><path d="M80.3424 166.574C79.4879 163.904 78.605 161.069 78.9705 158.239C79.0902 157.529 79.1314 157.495 79.1301 158.25C79.1719 161.037 79.706 163.968 80.343 166.574L80.3424 166.574Z" fill="#CA996C"></path><path d="M85.1515 167.367C84.3504 166.161 83.084 164.751 83.1876 163.285C83.8176 164.626 84.5222 166.128 85.1515 167.367Z" fill="#CA996C"></path><path d="M91.376 109.765C88.3209 108.349 83.5683 110.785 83.5683 110.785C81.4436 110.673 59.398 113.757 44.6055 115.875C47.1356 116.375 51.7157 117.073 56.2965 116.732C63.1429 116.223 69.8754 114.693 73.3836 116.223C76.8917 117.752 82.2099 116.223 83.1719 114.41C83.1719 114.41 83.2285 112.541 84.3604 112.201C85.4922 111.861 84.8571 113.567 85.7689 115.008C85.7689 115.008 86.8499 112.937 87.7553 113.107C88.6606 113.277 85.6621 118.714 87.8685 124.775C89.14 128.266 93.0586 119.82 96.153 112.033C93.6654 110.846 91.9287 110.021 91.3766 109.766L91.376 109.765Z" fill="#EC9E72"></path><path d="M83.5674 110.785C83.2277 112.167 83.4658 113.615 83.2817 114.989C82.8358 114.084 83.0321 113.021 83.2006 112.064C83.2463 111.831 83.3242 111.516 83.3892 111.287C83.4342 111.193 83.5018 110.805 83.5674 110.785Z" fill="#CA996C"></path><path d="M86.2016 109.779C85.8464 111.729 85.9455 113.738 85.9049 115.709C85.2145 114.174 85.7209 111.325 86.2016 109.779Z" fill="#CA996C"></path><path d="M84.999 119.504C85.6412 122.077 86.8322 124.438 88.1455 126.728C86.4976 125.393 85.2628 121.555 84.999 119.504Z" fill="#CA996C"></path><path d="M121.589 152.867C121.589 152.867 127.247 151.225 129.85 149.639C132.453 148.053 154.349 141.766 158.593 140.973C162.836 140.181 185.065 139.765 195.766 139.274C209.345 138.651 219.925 138.538 221.34 132.308C222.755 126.078 217.776 119.904 208.497 117.242C199.218 114.579 183.715 115.599 176.473 114.183C169.23 112.767 160.234 110.219 157.801 109.596C156.161 109.143 155.368 109.596 155.368 109.596C155.368 109.596 151.016 105.481 147.334 103.139C141.903 99.6838 124.363 96.2287 113.103 98.268C101.844 100.307 94.5454 104.329 91.377 109.766C88.2086 115.203 85.5491 125.228 91.377 135.933C97.2048 146.638 107.898 153.661 121.591 152.868L121.589 152.867Z" fill="#EAB07B"></path><path d="M201.563 123.428C201.145 123.53 200.784 123.793 200.563 124.163C200.064 124.998 199.291 126.773 199.33 129.702C199.387 134.006 200.574 136.385 201.989 136.838C203.276 137.25 211.497 136.631 214.971 135.748C215.515 135.61 215.924 135.161 216.015 134.606C216.31 132.815 216.794 128.591 215.589 125.014C215.441 124.574 215.11 124.22 214.684 124.04C212.549 123.141 206.396 122.247 201.563 123.427V123.428Z" fill="#F4D3C9"></path><path d="M202.315 123.263C202.061 123.312 201.811 123.367 201.563 123.428C201.145 123.53 200.784 123.793 200.563 124.163C200.065 124.998 199.291 126.773 199.33 129.702C199.387 134.006 200.574 136.385 201.989 136.838C202.108 136.876 202.286 136.905 202.513 136.926C205.672 130.235 203.249 124.907 202.315 123.262V123.263Z" fill="#DA926A"></path><path d="M213.699 135.978C210.723 136.419 207.711 136.643 204.706 136.724C202.817 136.703 201.492 137.051 200.584 135.011C199.364 132.047 199.243 128.128 200.389 125.122C200.643 124.521 200.946 123.806 201.659 123.671C205.651 122.747 210.762 122.827 214.683 124.041C211.065 122.656 206.974 122.434 203.15 122.877C202.515 122.984 201.792 123.065 201.187 123.284C199.835 123.948 199.443 126.106 199.185 127.467C198.819 130.209 198.969 137.118 202.758 137.197C206.859 137.205 210.994 136.748 214.971 135.75C214.549 135.841 214.125 135.914 213.699 135.979V135.978Z" fill="#CA996C"></path><path d="M162.102 110.744C160.146 110.223 158.609 109.802 157.801 109.596C156.16 109.143 155.368 109.596 155.368 109.596C155.368 109.596 151.255 105.708 147.644 103.34C148.651 104.182 149.687 105.147 150.304 105.999C151.805 108.07 154.042 109.456 154.43 109.702C154.818 109.948 154.404 110.194 154.417 110.893C154.417 110.893 154.947 110.284 155.18 110.271C155.413 110.258 155.801 110.698 155.956 111.035C155.956 111.035 156.124 110.595 156.164 110.271C156.202 109.948 157.25 109.883 157.781 109.948C158.27 110.008 160.987 110.895 162.103 110.745L162.102 110.744Z" fill="#EC9E72"></path><path d="M156.054 110.857C156.052 110.577 155.634 109.333 155.288 109.481C154.79 109.896 154.458 110.489 154.332 111.12C154.326 111.141 154.359 111.151 154.365 111.13C154.56 110.611 154.889 110.146 155.322 109.8C155.496 110.089 156.226 112.242 156.053 110.858L156.054 110.857Z" fill="#CA996C"></path><path d="M183.262 124.321C182.742 128.017 182.537 131.848 183.545 135.479C182.063 131.981 182.262 127.925 183.262 124.321Z" fill="#CA996C"></path><path d="M186.826 124.378C187.811 127.857 188.249 131.647 187.391 135.196C187.764 131.579 187.337 127.959 186.826 124.378Z" fill="#CA996C"></path><path d="M184.902 126.53C185.173 128.941 185.17 131.358 185.242 133.78C184.689 131.414 184.692 128.939 184.902 126.53Z" fill="#CA996C"></path><path d="M147.446 116.336C147.446 116.336 145.636 119.791 145.127 124.151C144.618 128.513 146.371 130.722 147.503 130.212C148.635 129.703 147.503 127.154 148.408 123.642C149.314 120.13 150.615 117.299 150.049 115.995C149.484 114.692 148.465 114.636 147.446 116.336Z" fill="#E19D5F"></path><path d="M100.938 110.502C100.938 110.502 111.405 101.383 128.096 104.215C129.737 104.838 129.511 105.744 126.625 105.631C124.84 105.561 118.081 105.234 112.198 107.443C106.313 109.652 98.5054 114.58 100.938 110.502H100.938Z" fill="#E19D5F"></path><path d="M159.055 13.367C135.701 -7.79663 99.8977 2.62931 101.786 36.6402C103.719 71.4698 159.055 95.1996 159.055 95.1996C159.055 95.1996 214.39 71.4698 216.324 36.6402C218.213 2.62931 182.409 -7.79663 159.055 13.367Z" fill="#E35F5D"></path><path d="M126.909 62.8734C105.962 44.6109 105.457 25.7294 105.754 17.1934C102.875 22.3941 101.356 28.9076 101.785 36.641C103.719 71.4706 159.054 95.2005 159.054 95.2005C159.054 95.2005 183.207 84.8428 200.156 67.7701C185.797 75.1821 155.158 87.5031 126.908 62.874L126.909 62.8734Z" fill="#D35454"></path><path d="M202.355 13.2569C217.997 23.6461 211.72 47.4629 207.066 59.8142C212.255 52.8601 215.856 45.0758 216.324 36.6402C218.213 2.62931 182.409 -7.79663 159.055 13.367L161.541 17.1932C161.541 17.1932 180.754 -1.08992 202.356 13.2575L202.355 13.2569Z" fill="#D35454"></path><path d="M165.506 17.5046C165.506 17.5046 185.062 6.59687 199.783 19.7398C212.951 31.4952 204.275 51.9149 202.383 53.5484C199.783 55.7926 199.183 53.9143 198.662 39.6312C197.807 16.1796 158.1 23.316 165.506 17.5046Z" fill="#F76B6B"></path><path d="M153.335 16.0471C153.335 16.0471 144.385 6.75674 136.047 7.58832C127.709 8.41989 128.476 11.3314 134.116 12.9945C139.756 14.6577 158.605 23.4656 153.335 16.0471Z" fill="#F76B6B"></path><path d="M266.656 187.06C271.346 182.371 271.346 174.768 266.656 170.079C261.966 165.39 254.363 165.39 249.673 170.079C244.983 174.768 244.983 182.371 249.673 187.06C254.363 191.749 261.966 191.749 266.656 187.06Z" fill="#C7E2FC"></path><path d="M264.484 185.248C264.351 185.248 264.22 185.199 264.117 185.099C263.909 184.896 263.905 184.563 264.107 184.356C265.652 182.768 266.487 180.675 266.457 178.461C266.427 176.247 265.537 174.176 263.95 172.63C263.742 172.427 263.738 172.094 263.939 171.887C264.142 171.678 264.475 171.675 264.683 171.876C266.472 173.617 267.475 175.951 267.508 178.447C267.541 180.944 266.6 183.303 264.859 185.092C264.756 185.198 264.619 185.251 264.481 185.251L264.484 185.248Z" fill="#D9EAFC"></path><path d="M243.852 195.108L242.012 193.316C240.69 192.029 240.662 189.915 241.949 188.595L247.449 182.946L253.975 189.501L248.575 195.046C247.288 196.368 245.173 196.396 243.853 195.109L243.852 195.108Z" fill="#B3D8FC"></path><path d="M252.697 190.812L246.071 184.362L246.334 180.629L256.383 190.413L252.697 190.812Z" fill="#9FCBF5"></path><path d="M243.92 186.57C246.447 188.359 248.693 190.54 250.546 193.02C248.016 191.233 245.777 189.047 243.92 186.57Z" fill="#9FCBF5"></path><path d="M241.919 188.625C244.446 190.413 246.692 192.595 248.545 195.075C246.016 193.287 243.776 191.102 241.919 188.625Z" fill="#9FCBF5"></path><path d="M268.646 168.294C268.513 168.294 268.382 168.245 268.279 168.145C268.071 167.942 268.067 167.609 268.268 167.402L271.043 164.553C271.246 164.344 271.579 164.341 271.787 164.542C271.994 164.745 271.999 165.078 271.797 165.286L269.022 168.135C268.919 168.241 268.782 168.294 268.645 168.294H268.646Z" fill="#C7E2FC"></path><path d="M247.363 168.578C247.23 168.578 247.098 168.529 246.995 168.429L244.146 165.655C243.938 165.452 243.934 165.119 244.136 164.911C244.339 164.702 244.672 164.699 244.879 164.901L247.728 167.675C247.936 167.878 247.94 168.211 247.739 168.418C247.636 168.524 247.498 168.578 247.361 168.578H247.363Z" fill="#C7E2FC"></path><path d="M271.778 192.35C271.645 192.35 271.513 192.3 271.41 192.2L268.561 189.426C268.353 189.223 268.349 188.89 268.551 188.683C268.754 188.474 269.087 188.471 269.294 188.672L272.143 191.446C272.351 191.649 272.356 191.982 272.154 192.19C272.051 192.296 271.913 192.35 271.776 192.35H271.778Z" fill="#C7E2FC"></path><path d="M273.196 178.877C272.909 178.877 272.673 178.646 272.67 178.358C272.666 178.067 272.899 177.829 273.19 177.825L277.167 177.773C277.462 177.768 277.695 178.001 277.7 178.292C277.704 178.583 277.471 178.822 277.18 178.825L273.204 178.877H273.196Z" fill="#C7E2FC"></path><path d="M257.945 164.029C257.658 164.029 257.422 163.797 257.419 163.509L257.367 159.533C257.363 159.242 257.596 159.004 257.887 159C258.181 159 258.416 159.231 258.42 159.52L258.472 163.496C258.477 163.787 258.244 164.024 257.953 164.029H257.945Z" fill="#C7E2FC"></path><path d="M263.829 165.142C263.763 165.142 263.696 165.13 263.63 165.104C263.362 164.995 263.232 164.687 263.342 164.418L264.844 160.736C264.955 160.468 265.261 160.338 265.53 160.448C265.799 160.557 265.929 160.865 265.818 161.133L264.316 164.815C264.232 165.02 264.035 165.142 263.829 165.142Z" fill="#C7E2FC"></path><path d="M244.209 173.395C244.143 173.395 244.076 173.383 244.01 173.356L240.328 171.854C240.059 171.745 239.929 171.438 240.039 171.169C240.15 170.9 240.456 170.77 240.725 170.881L244.407 172.383C244.676 172.492 244.806 172.799 244.695 173.068C244.612 173.273 244.415 173.395 244.209 173.395Z" fill="#C7E2FC"></path><path d="M275.765 186.262C275.699 186.262 275.632 186.25 275.566 186.223L271.884 184.721C271.615 184.612 271.485 184.305 271.596 184.036C271.706 183.767 272.012 183.637 272.281 183.748L275.963 185.25C276.232 185.359 276.362 185.667 276.252 185.935C276.168 186.14 275.971 186.262 275.765 186.262Z" fill="#C7E2FC"></path><path d="M272.019 173.243C271.813 173.243 271.619 173.122 271.534 172.92C271.422 172.653 271.548 172.344 271.815 172.23L275.479 170.69C275.747 170.576 276.056 170.703 276.169 170.97C276.281 171.238 276.156 171.547 275.889 171.66L272.224 173.201C272.157 173.229 272.088 173.243 272.021 173.243H272.019Z" fill="#C7E2FC"></path><path d="M265.524 196.614C265.318 196.614 265.124 196.493 265.039 196.291L263.498 192.627C263.386 192.36 263.511 192.051 263.778 191.938C264.046 191.824 264.355 191.951 264.468 192.218L266.009 195.882C266.121 196.15 265.996 196.459 265.729 196.572C265.661 196.601 265.593 196.614 265.525 196.614H265.524Z" fill="#C7E2FC"></path><path d="M252.31 165.205C252.103 165.205 251.909 165.084 251.824 164.883L250.283 161.217C250.171 160.95 250.297 160.641 250.564 160.529C250.833 160.415 251.14 160.542 251.254 160.81L252.795 164.475C252.907 164.742 252.781 165.051 252.514 165.163C252.447 165.192 252.378 165.205 252.311 165.205H252.31Z" fill="#C7E2FC"></path><path d="M227 23.9784L227.39 22.3703C228.758 22.7943 229.152 21.6253 229.409 20.5278C229.83 18.9168 231.968 9.59986 232.494 8.22621C232.058 8.15454 231.15 7.93955 230.744 7.88131L231.199 6C232.607 6.30608 233.975 6.59724 235.167 6.1747L236.529 6.50467L233.794 17.791L234.983 18.0791C235.804 17.5118 237.662 16.1262 238.48 15.6514L237.168 15.3333L237.623 13.452L243.193 14.8003L242.809 16.3845C240.487 15.9545 238.549 17.6999 236.805 18.8869C238.591 20.3561 238.789 24.7413 241.031 25.6745L240.641 27.2826L237.795 26.5928C235.672 25.9433 234.901 21.5536 233.945 19.6603L233.37 19.5469C233.091 20.71 232.742 22.2001 232.341 23.3587C232.794 23.4035 233.56 23.5767 233.968 23.6738L233.512 25.5551L227.001 23.9784H227Z" fill="#C7E2FC"></path><path d="M69.6545 172.087C76.0576 170.359 79.8468 163.767 78.1179 157.365C76.389 150.963 69.7967 147.174 63.3936 148.903C56.9905 150.631 53.2013 157.223 54.9302 163.625C56.6591 170.027 63.2514 173.816 69.6545 172.087Z" fill="#C7E2FC"></path><path d="M59.884 155.214C59.7615 155.214 59.6376 155.171 59.5375 155.084C59.318 154.893 59.2956 154.56 59.4868 154.342C62.8765 150.46 68.7914 150.06 72.674 153.449C72.8935 153.64 72.9159 153.973 72.7247 154.191C72.5336 154.411 72.2006 154.433 71.9826 154.242C68.5376 151.235 63.2887 151.59 60.2812 155.035C60.1767 155.154 60.0318 155.216 59.884 155.216V155.214Z" fill="#D9EAFC"></path><path d="M83.8214 173.879L82.1325 175.815C80.92 177.203 78.81 177.346 77.4212 176.134L71.3032 170.793L77.4541 163.888L83.5034 169.169C84.8921 170.381 85.0355 172.491 83.8229 173.879H83.8214Z" fill="#B3D8FC"></path><path d="M79.0519 165.284L72.9697 172.249L69.2275 172.189L78.4531 161.624L79.0519 165.284Z" fill="#9FCBF5"></path><path d="M75.292 174.276C76.9421 171.656 78.9968 169.295 81.3742 167.311C79.7271 169.933 77.6663 172.289 75.292 174.276Z" fill="#9FCBF5"></path><path d="M77.4526 176.162C79.1027 173.542 81.1575 171.181 83.5348 169.197C81.8877 171.819 79.827 174.175 77.4526 176.162Z" fill="#9FCBF5"></path><path d="M55.171 151.137C55.0486 151.137 54.9246 151.093 54.8246 151.007L51.829 148.392C51.6095 148.201 51.5871 147.868 51.7783 147.65C51.9694 147.432 52.3024 147.408 52.5204 147.6L55.516 150.214C55.7355 150.405 55.7579 150.738 55.5667 150.956C55.4622 151.075 55.3174 151.137 55.1695 151.137H55.171Z" fill="#C7E2FC"></path><path d="M53.9958 175.367C53.8733 175.367 53.7494 175.323 53.6493 175.237C53.4298 175.046 53.4074 174.713 53.5986 174.495L56.2133 171.499C56.4045 171.281 56.7375 171.258 56.9555 171.449C57.175 171.64 57.1974 171.973 57.0063 172.191L54.3915 175.186C54.287 175.305 54.1421 175.367 53.9943 175.367H53.9958Z" fill="#C7E2FC"></path><path d="M76.4099 149.699C76.2874 149.699 76.1635 149.655 76.0634 149.569C75.8439 149.378 75.8215 149.045 76.0126 148.827L78.6274 145.831C78.8185 145.612 79.1515 145.59 79.3695 145.781C79.5891 145.972 79.6115 146.305 79.4203 146.523L76.8056 149.518C76.701 149.637 76.5562 149.699 76.4084 149.699H76.4099Z" fill="#C7E2FC"></path><path d="M65.4924 146.02C65.2176 146.02 64.9861 145.806 64.9682 145.528L64.6994 141.561C64.68 141.272 64.8995 141.021 65.1892 141.001C65.4789 140.98 65.7298 141.201 65.7492 141.491L66.018 145.458C66.0374 145.748 65.8179 145.999 65.5282 146.018C65.5163 146.018 65.5043 146.018 65.4924 146.018V146.02Z" fill="#C7E2FC"></path><path d="M47.5253 162.321C47.2506 162.321 47.0191 162.108 47.0012 161.83C46.9818 161.541 47.2013 161.29 47.491 161.27L51.4586 161.002C51.7483 160.979 51.9992 161.202 52.0186 161.491C52.038 161.781 51.8185 162.032 51.5288 162.051L47.5612 162.32C47.5492 162.32 47.5373 162.32 47.5253 162.32V162.321Z" fill="#C7E2FC"></path><path d="M52.2846 156.118C52.2279 156.118 52.1696 156.109 52.1129 156.089L48.3543 154.79C48.0795 154.695 47.9332 154.396 48.0288 154.121C48.1243 153.847 48.423 153.7 48.6978 153.796L52.4564 155.095C52.7311 155.19 52.8775 155.489 52.7819 155.764C52.7072 155.982 52.5027 156.118 52.2846 156.118Z" fill="#C7E2FC"></path><path d="M60.2931 179.017C60.2364 179.017 60.1781 179.008 60.1214 178.989C59.8466 178.893 59.7003 178.595 59.7959 178.32L61.095 174.562C61.1906 174.287 61.4892 174.141 61.764 174.236C62.0388 174.332 62.1851 174.63 62.0895 174.905L60.7904 178.663C60.7157 178.881 60.5111 179.017 60.2931 179.017Z" fill="#C7E2FC"></path><path d="M71.4284 146.811C71.3716 146.811 71.3134 146.802 71.2567 146.783C70.9819 146.687 70.8355 146.389 70.9311 146.114L72.2303 142.356C72.3258 142.081 72.6245 141.935 72.8993 142.03C73.174 142.126 73.3204 142.424 73.2248 142.699L71.9256 146.457C71.851 146.675 71.6464 146.811 71.4284 146.811Z" fill="#C7E2FC"></path><path d="M59.93 147.501C59.7344 147.501 59.5478 147.392 59.4567 147.205L57.7185 143.629C57.5916 143.368 57.7006 143.053 57.9619 142.926C58.2232 142.799 58.5383 142.908 58.6652 143.169L60.4034 146.745C60.5304 147.007 60.4213 147.322 60.16 147.449C60.0854 147.484 60.0077 147.502 59.93 147.502V147.501Z" fill="#C7E2FC"></path><path d="M80.0478 154.454C79.8522 154.454 79.6655 154.345 79.5745 154.159C79.4475 153.897 79.5565 153.582 79.8179 153.455L83.3943 151.718C83.6556 151.591 83.9707 151.7 84.0976 151.961C84.2246 152.222 84.1155 152.537 83.8542 152.664L80.2778 154.402C80.2031 154.438 80.1255 154.456 80.0478 154.456V154.454Z" fill="#C7E2FC"></path><path d="M49.3979 169.354C49.2023 169.354 49.0156 169.245 48.9246 169.058C48.7976 168.797 48.9066 168.482 49.168 168.355L52.7444 166.617C53.0057 166.49 53.3208 166.599 53.4477 166.86C53.5746 167.122 53.4656 167.437 53.2043 167.564L49.6279 169.302C49.5532 169.337 49.4756 169.355 49.3979 169.355V169.354Z" fill="#C7E2FC"></path><path d="M60.1216 121.913C59.7079 121.113 59.5884 120.721 59.2345 119.915C57.4829 123.814 52.3117 126.733 48.4515 124.819C45.8278 123.569 44.3405 119.797 45.2156 117.069C46.573 112.824 51.0812 110.221 55.0459 108.589C54.5949 107.357 54.0275 105.238 53.233 104.256C51.6531 101.825 48.0677 103.399 47.0075 105.592C50.0941 107.806 47.0687 112.511 43.6984 110.682C41.9513 109.574 41.5735 107.089 42.4664 105.272C44.6123 100.866 52.0265 97.5964 56.4929 99.6061C59.0972 100.445 60.9399 104.965 61.794 107.973C62.7064 110.785 63.7906 113.717 64.5536 116.738C65.3227 116.354 66.692 115.855 67.4192 115.605L68.5885 119.007L60.1231 121.913H60.1216ZM56.0927 111.782C46.8 115.611 53.0807 124.548 57.8144 116.798C57.2425 115.133 56.6646 113.449 56.0927 111.782Z" fill="#C7E2FC"></path><path d="M65.2403 46.486L66.8754 43.8791C69.0332 45.4304 70.3802 43.5461 71.4822 41.7932L75.0706 36.1628C70.8849 37.1751 66.4155 34.8593 64.7535 31.0892C63.1855 27.3849 64.2129 23.352 66.4693 19.7567C70.0009 13.7365 77.4599 10.8399 83.5181 14.8563C86.5346 16.2807 87.8307 20.1687 90.3872 19.4998L92.5525 20.8586C91.0279 23.1729 76.3026 47.0833 74.9795 48.5137C75.7217 48.8421 77.0372 49.638 77.6629 50.0292L75.75 53.0781L65.2403 46.486ZM72.5559 32.6869C73.8551 33.526 75.6978 33.5767 77.0671 32.8899C77.8944 31.1146 84.0841 22.8145 83.8765 20.9243C83.8347 18.3949 80.7137 16.76 78.5962 17.4453C77.4494 17.7887 76.3772 18.4577 75.3812 19.4521C72.5619 22.3337 68.0536 29.5917 72.5559 32.6869Z" fill="#C7E2FC"></path><path d="M164.661 197.488L164.176 195.905C165.569 195.572 165.311 194.364 164.972 193.291C164.533 191.744 161.494 182.272 161.274 180.894C160.867 181.055 159.945 181.34 159.567 181.497L159 179.647C160.401 179.187 161.686 178.742 162.526 177.766L163.719 177.4C163.873 177.67 164.076 178.255 164.2 178.532C165.92 175.542 170.109 175.081 172.269 177.788C176.088 182.188 174.385 190.197 167.636 189.731C168.019 191.023 168.651 192.901 168.938 194.233C169.335 194.046 170.094 193.8 170.474 193.682L171.042 195.532L164.663 197.489L164.661 197.488ZM168.987 187.796C173.918 186.36 168.112 174.017 164.797 180.479C165.559 182.962 166.314 185.421 167.076 187.904C167.603 188.043 168.412 188.019 168.987 187.796Z" fill="#C7E2FC"></path><path d="M23.5037 204.652C17.6777 201.967 19.9696 193.759 24.2023 190.623C27.4044 188.035 32.3243 188.532 35.0393 191.582C35.7128 190.23 36.5822 188.454 37.4087 187.145C36.8818 186.931 35.7233 186.447 35.2467 186.217L36.357 184C38.1 184.793 39.7194 185.503 41.389 185.325L43 186.096C42.095 187.808 33.7572 204.83 32.9182 205.941C33.4901 206.129 34.4161 206.551 34.9011 206.783L33.7908 209L28.123 206.285C28.2958 205.84 28.4843 205.316 28.6163 204.856C26.7801 205.511 25.1681 205.429 23.5047 204.65L23.5037 204.652ZM26.3842 202.74C27.3835 203.238 28.6394 203.095 29.5611 202.526C30.1498 201.349 33.2932 195.07 33.9437 193.771C32.361 191.335 29.1819 191.234 27.4065 193.57C25.5787 195.762 22.9506 200.886 26.3852 202.741L26.3842 202.74Z" fill="#C7E2FC"></path></g><path d="M264.461 59.1997C254.483 64.5166 244.787 54.0007 247.445 43.9686C248.804 38.0201 256.644 33.0377 262.292 35.767C264.911 36.9959 266.426 41.0705 263.423 42.7129C260.864 44.2866 258.533 41.7364 258.712 39.3251C256.051 37.7782 252.846 40.3031 252.627 43.234C252.148 46.0156 254.419 50.7547 256.665 53.0541C261.085 58.0933 267.608 54.0261 268.556 48.2777L271.465 49.184C270.866 53.7827 268.347 57.2452 264.46 59.1997H264.461Z" fill="#C7E2FC"></path><path d="M28.0335 56.994C32.7233 52.3048 32.7233 44.7021 28.0335 40.0129C23.3437 35.3236 15.74 35.3236 11.0502 40.0129C6.36043 44.7021 6.36044 52.3048 11.0502 56.994C15.7401 61.6832 23.3437 61.6832 28.0335 56.994Z" fill="#C7E2FC"></path><path d="M27.4386 45.1006C27.2445 45.1006 27.0594 44.9931 26.9668 44.808C25.9797 42.8251 24.2803 41.3455 22.1793 40.6407C20.0797 39.936 17.8308 40.0913 15.8463 41.0782C15.5864 41.2081 15.2699 41.1021 15.1399 40.8423C15.01 40.5825 15.116 40.266 15.3774 40.1361C17.6128 39.0237 20.1469 38.849 22.5138 39.6434C24.8806 40.4377 26.7965 42.1055 27.909 44.3406C28.0389 44.6004 27.9329 44.917 27.6716 45.0469C27.5969 45.0842 27.5163 45.1021 27.4371 45.1021L27.4386 45.1006Z" fill="#D9EAFC"></path><path d="M30.4188 67.4778L28.1192 68.6215C26.4676 69.4427 24.4636 68.7708 23.6423 67.1195L20.1196 60.0407L28.3252 55.7734L31.9226 63.0015C32.7439 64.6529 32.0719 66.6566 30.4203 67.4778H30.4188Z" fill="#B3D8FC"></path><path d="M29.29 57.7114L21.0098 61.8308L17.5737 60.3497L30.1323 54.1011L29.29 57.7114Z" fill="#9FCBF5"></path><path d="M22.3838 64.5902C24.9089 62.7969 27.7088 61.3994 30.6641 60.4707C28.1419 62.2669 25.3375 63.6585 22.3838 64.5902Z" fill="#9FCBF5"></path><path d="M23.6621 67.1585C26.1873 65.3653 28.9872 63.9678 31.9424 63.0391C29.4202 64.8353 26.6158 66.2268 23.6621 67.1585Z" fill="#9FCBF5"></path><path d="M12.8135 35.5675C12.6194 35.5675 12.4342 35.46 12.3416 35.2763L10.5706 31.7168C10.4407 31.457 10.5467 31.1404 10.808 31.0105C11.0679 30.8806 11.3844 30.9866 11.5144 31.2479L13.2854 34.8075C13.4153 35.0673 13.3093 35.3838 13.048 35.5137C12.9733 35.551 12.8927 35.569 12.8135 35.569V35.5675Z" fill="#C7E2FC"></path><path d="M2.48291 57.5175C2.28879 57.5175 2.10361 57.41 2.01103 57.2249C1.88111 56.9651 1.98715 56.6486 2.24848 56.5187L5.80846 54.7478C6.0683 54.6179 6.38487 54.724 6.51478 54.9852C6.6447 55.245 6.53868 55.5616 6.27736 55.6915L2.71737 57.4623C2.64271 57.4996 2.56206 57.5175 2.48291 57.5175Z" fill="#C7E2FC"></path><path d="M32.9951 42.3373C32.801 42.3373 32.6158 42.2298 32.5232 42.0462C32.3933 41.7864 32.4993 41.4698 32.7607 41.3399L36.3207 39.5691C36.5805 39.4392 36.8971 39.5452 37.027 39.8065C37.1569 40.0663 37.0509 40.3829 36.7895 40.5128L33.2296 42.2836C33.1549 42.3209 33.0743 42.3388 32.9951 42.3388V42.3373Z" fill="#C7E2FC"></path><path d="M24.3056 34.7731C24.2504 34.7731 24.1937 34.7641 24.1384 34.7462C23.8621 34.6536 23.7143 34.355 23.8069 34.0803L25.0717 30.3102C25.1643 30.034 25.4629 29.8862 25.7377 29.9788C26.014 30.0713 26.1618 30.37 26.0692 30.6447L24.8044 34.4148C24.7312 34.6342 24.5252 34.7731 24.3056 34.7731Z" fill="#C7E2FC"></path><path d="M5.24856 44.2558C5.19331 44.2558 5.13656 44.2469 5.08131 44.2289L1.31076 42.9643C1.03451 42.8717 0.886676 42.5731 0.979259 42.2984C1.07184 42.0236 1.37049 41.8743 1.64526 41.9669L5.4158 43.2316C5.69206 43.3241 5.83989 43.6227 5.74731 43.8975C5.67414 44.117 5.46807 44.2558 5.24856 44.2558Z" fill="#C7E2FC"></path><path d="M8.24413 39.0703C8.12019 39.0703 7.99623 39.027 7.89618 38.9389L4.91709 36.3051C4.69907 36.1125 4.67965 35.7796 4.87228 35.5631C5.06491 35.3451 5.39791 35.3257 5.61444 35.5183L8.59355 38.1521C8.81157 38.3447 8.83098 38.6777 8.63834 38.8942C8.53381 39.0121 8.38898 39.0718 8.24413 39.0718V39.0703Z" fill="#C7E2FC"></path><path d="M6.91199 63.2927C6.78804 63.2927 6.66411 63.2494 6.56406 63.1613C6.34604 62.9687 6.32662 62.6357 6.51925 62.4192L9.15341 59.4405C9.34604 59.2225 9.67904 59.2031 9.89557 59.3957C10.1136 59.5883 10.133 59.9213 9.94037 60.1378L7.30622 63.1165C7.20169 63.2345 7.05684 63.2942 6.91199 63.2942V63.2927Z" fill="#C7E2FC"></path><path d="M29.4906 37.7697C29.3667 37.7697 29.2427 37.7264 29.1427 37.6383C28.9247 37.4457 28.9052 37.1128 29.0979 36.8963L31.732 33.9175C31.9247 33.6996 32.2577 33.6801 32.4742 33.8728C32.6922 34.0654 32.7116 34.3983 32.519 34.6148L29.8848 37.5935C29.7803 37.7115 29.6354 37.7712 29.4906 37.7712V37.7697Z" fill="#C7E2FC"></path><path d="M18.5967 34.0207C18.3204 34.0207 18.089 33.8056 18.0725 33.5264L17.8291 29.5578C17.8112 29.2681 18.0322 29.0188 18.3219 29.0009C18.6101 28.9844 18.861 29.2039 18.8789 29.4936L19.1223 33.4622C19.1403 33.7519 18.9192 34.0012 18.6295 34.0192C18.6191 34.0192 18.6071 34.0192 18.5967 34.0192V34.0207Z" fill="#C7E2FC"></path><path d="M34.5408 48.1216C34.2645 48.1216 34.0331 47.9065 34.0166 47.6273C33.9987 47.3377 34.2197 47.0883 34.5094 47.0704L38.4786 46.827C38.7668 46.8106 39.0177 47.0301 39.0356 47.3198C39.0535 47.6094 38.8325 47.8588 38.5428 47.8767L34.5736 48.1201C34.5632 48.1201 34.5512 48.1201 34.5408 48.1201V48.1216Z" fill="#C7E2FC"></path><path d="M0.525162 50.2057C0.248904 50.2057 0.0174432 49.9907 0.0010171 49.7115C-0.0169023 49.4218 0.204111 49.1725 0.493809 49.1545L4.46295 48.9112C4.75265 48.8933 5.00203 49.1142 5.01995 49.4039C5.03787 49.6936 4.81687 49.9429 4.52717 49.9608L0.55801 50.2042C0.547557 50.2042 0.535615 50.2042 0.525162 50.2042V50.2057Z" fill="#C7E2FC"></path><path d="M283.693 83.2434C275.48 86.2863 271.323 73.2665 279.222 70.4535C287.262 67.4061 291.682 80.6171 283.693 83.2434ZM283.202 81.501C286.656 80.4961 282.927 70.8582 279.753 72.1572C276.173 73.3636 279.803 82.8104 283.202 81.501Z" fill="#C7E2FC"></path><path d="M88.6933 82.2434C80.4802 85.2863 76.3229 72.2665 84.2224 69.4535C92.2623 66.4061 96.6824 79.6171 88.6933 82.2434ZM88.202 80.501C91.656 79.4961 87.9273 69.8582 84.7525 71.1572C81.1731 72.3636 84.8033 81.8104 88.202 80.501Z" fill="#C7E2FC"></path><defs><clipPath id="clip0_618_746"><rect width="286" height="209" fill="white" transform="translate(11)"></rect></clipPath></defs></svg>